<?xml version="1.0" encoding="UTF-8" standalone="no"?>
<!-- Created with Inkscape (http://www.inkscape.org/) -->

<svg
   xmlns:dc="http://purl.org/dc/elements/1.1/"
   xmlns:cc="http://creativecommons.org/ns#"
   xmlns:rdf="http://www.w3.org/1999/02/22-rdf-syntax-ns#"
   xmlns:svg="http://www.w3.org/2000/svg"
   xmlns="http://www.w3.org/2000/svg"
   xmlns:sodipodi="http://sodipodi.sourceforge.net/DTD/sodipodi-0.dtd"
   xmlns:inkscape="http://www.inkscape.org/namespaces/inkscape"
   width="2in"
   height="2in"
   viewBox="0 0 50.800001 50.800001"
   version="1.1"
   id="svg4564"
   inkscape:version="0.92.3 (2405546, 2018-03-11)"
   sodipodi:docname="nazi hackers fuck off round paths.svg">
  <defs
     id="defs4558">
    <inkscape:path-effect
       effect="bspline"
       id="path-effect851"
       is_visible="true"
       weight="33.333333"
       steps="2"
       helper_size="0"
       apply_no_weight="true"
       apply_with_weight="true"
       only_selected="false" />
  </defs>
  <sodipodi:namedview
     id="base"
     pagecolor="#ffffff"
     bordercolor="#666666"
     borderopacity="1.0"
     inkscape:pageopacity="0.0"
     inkscape:pageshadow="2"
     inkscape:zoom="5.6"
     inkscape:cx="95.487847"
     inkscape:cy="92.963144"
     inkscape:document-units="mm"
     inkscape:current-layer="layer1"
     showgrid="false"
     units="in"
     inkscape:snap-page="true"
     inkscape:window-width="2498"
     inkscape:window-height="1417"
     inkscape:window-x="1912"
     inkscape:window-y="1072"
     inkscape:window-maximized="1" />
  <metadata
     id="metadata4561">
    <rdf:RDF>
      <cc:Work
         rdf:about="">
        <dc:format>image/svg+xml</dc:format>
        <dc:type
           rdf:resource="http://purl.org/dc/dcmitype/StillImage" />
        <dc:title></dc:title>
      </cc:Work>
    </rdf:RDF>
  </metadata>
  <g
     inkscape:groupmode="layer"
     id="layer2"
     inkscape:label="Layer 2"
     style="display:inline">
    <rect
       transform="translate(0,-246.19998)"
       style="fill:#000000;fill-opacity:0.99111173;stroke:#000000;stroke-width:0.26458332;stroke-miterlimit:4;stroke-dasharray:none;stroke-opacity:1"
       id="rect907"
       width="50.799999"
       height="50.799999"
       x="0"
       y="246.19998" />
  </g>
  <g
     inkscape:groupmode="layer"
     id="layer3"
     inkscape:label="Layer 3"
     style="display:inline">
    <path
       id="path6709"
       style="fill:#ffffff;fill-opacity:1;fill-rule:evenodd;stroke:#4d4d4d;stroke-width:0.67805004;stroke-linecap:butt;stroke-linejoin:miter;stroke-miterlimit:4;stroke-dasharray:none;stroke-opacity:1"
       d="m 19.673347,38.562585 h 12.38088 l 2.838928,-7.964767 v -9.226515 c 0,-1.282977 -4.179533,-2.195724 -4.179533,-1.498332 v 2.838935 -4.100675 c 0,-0.747841 -4.157255,-1.314531 -4.157255,0 v 3.0755 -11.197995 c -1.146765,-1.9862508 -4.122951,-1.0346318 -4.122951,0 v 11.434577 -3.390936 c 0,-1.023388 -4.170787,-1.001262 -4.170787,0 v 8.753351 -4.498922 c 0.01745,-1.184135 -3.961369,-1.311846 -4.030561,0 v 4.735504 z"
       inkscape:connector-curvature="0" />
  </g>
  <g
     inkscape:label="Layer 1"
     inkscape:groupmode="layer"
     id="layer1"
     transform="translate(0,-246.19998)"
     style="display:inline">
    <g
       aria-label="NAZI HACKERS"
       transform="matrix(-0.72629811,-0.04982113,0.04982113,-0.72629811,30.418091,471.08171)"
       style="font-style:normal;font-variant:normal;font-weight:bold;font-stretch:normal;font-size:10.58333302px;line-height:1.25;font-family:'DejaVu Sans Mono for Powerline';-inkscape-font-specification:'DejaVu Sans Mono for Powerline, Bold';font-variant-ligatures:normal;font-variant-caps:normal;font-variant-numeric:normal;font-feature-settings:normal;text-align:start;letter-spacing:0px;word-spacing:0px;writing-mode:lr-tb;text-anchor:start;fill:#ffffff;fill-opacity:0.99111173;stroke:none;stroke-width:0.26458332"
       id="text5119">
      <path
         d="m 58.34232,273.2329 -0.204494,1.62533 -5.831393,1.433 5.563035,0.69992 -0.167724,1.33308 -7.654941,-0.96312 0.203204,-1.61508 5.832683,-1.44325 -5.563035,-0.69993 0.167724,-1.33307 z"
         style="font-style:normal;font-variant:normal;font-weight:bold;font-stretch:normal;font-size:10.58333302px;font-family:'DejaVu Sans Mono for Powerline';-inkscape-font-specification:'DejaVu Sans Mono for Powerline, Bold';font-variant-ligatures:normal;font-variant-caps:normal;font-variant-numeric:normal;font-feature-settings:normal;text-align:start;writing-mode:lr-tb;text-anchor:start;fill:#ffffff;fill-opacity:0.99111173;stroke-width:0.26458332"
         id="path865"
         inkscape:connector-curvature="0" />
      <path
         d="m 54.658416,283.30373 -2.66832,-1.8345 -0.532916,1.33967 z m 1.640269,-0.34857 -0.689544,1.7334 -7.938668,-0.91669 0.563478,-1.4165 1.947546,0.26307 0.754487,-1.89666 -1.599909,-1.13697 0.563477,-1.4165 z"
         style="font-style:normal;font-variant:normal;font-weight:bold;font-stretch:normal;font-size:10.58333302px;font-family:'DejaVu Sans Mono for Powerline';-inkscape-font-specification:'DejaVu Sans Mono for Powerline, Bold';font-variant-ligatures:normal;font-variant-caps:normal;font-variant-numeric:normal;font-feature-settings:normal;text-align:start;writing-mode:lr-tb;text-anchor:start;fill:#ffffff;fill-opacity:0.99111173;stroke-width:0.26458332"
         id="path867"
         inkscape:connector-curvature="0" />
      <path
         d="m 53.400587,289.08077 -3.081373,4.21265 -1.01771,-0.74441 -2.013863,-5.9036 -2.153911,2.94469 -1.084445,-0.79323 3.191205,-4.3628 1.01771,0.74441 2.077931,5.816 1.980011,-2.70694 z"
         style="font-style:normal;font-variant:normal;font-weight:bold;font-stretch:normal;font-size:10.58333302px;font-family:'DejaVu Sans Mono for Powerline';-inkscape-font-specification:'DejaVu Sans Mono for Powerline, Bold';font-variant-ligatures:normal;font-variant-caps:normal;font-variant-numeric:normal;font-feature-settings:normal;text-align:start;writing-mode:lr-tb;text-anchor:start;fill:#ffffff;fill-opacity:0.99111173;stroke-width:0.26458332"
         id="path869"
         inkscape:connector-curvature="0" />
      <path
         d="m 47.167739,294.60471 0.852958,1.03812 -3.549564,2.91646 -0.852958,-1.03812 1.18585,-0.97434 -3.192034,-3.88496 -1.185849,0.97435 -0.852959,-1.03812 3.549564,-2.91646 0.852958,1.03811 -1.185849,0.97434 3.192033,3.88496 z"
         style="font-style:normal;font-variant:normal;font-weight:bold;font-stretch:normal;font-size:10.58333302px;font-family:'DejaVu Sans Mono for Powerline';-inkscape-font-specification:'DejaVu Sans Mono for Powerline, Bold';font-variant-ligatures:normal;font-variant-caps:normal;font-variant-numeric:normal;font-feature-settings:normal;text-align:start;writing-mode:lr-tb;text-anchor:start;fill:#ffffff;fill-opacity:0.99111173;stroke-width:0.26458332"
         id="path871"
         inkscape:connector-curvature="0" />
      <path
         d="m 33.743329,303.58868 -1.499736,0.27342 -0.527361,-2.89271 -1.875941,0.34199 0.527361,2.89271 -1.499736,0.27342 -1.383744,-7.59019 1.499736,-0.27342 0.615409,3.37568 1.875941,-0.342 -0.615409,-3.37567 1.499736,-0.27341 z"
         style="font-style:normal;font-variant:normal;font-weight:bold;font-stretch:normal;font-size:10.58333302px;font-family:'DejaVu Sans Mono for Powerline';-inkscape-font-specification:'DejaVu Sans Mono for Powerline, Bold';font-variant-ligatures:normal;font-variant-caps:normal;font-variant-numeric:normal;font-feature-settings:normal;text-align:start;writing-mode:lr-tb;text-anchor:start;fill:#ffffff;fill-opacity:0.99111173;stroke-width:0.26458332"
         id="path873"
         inkscape:connector-curvature="0" />
      <path
         d="m 23.133232,303.09018 0.941322,-3.09827 -1.438113,-0.10266 z m 0.828456,1.45796 -1.860783,-0.13285 -1.527861,-7.844 1.520584,0.10856 0.338427,1.93587 2.036037,0.14536 0.599697,-1.8689 1.520584,0.10855 z"
         style="font-style:normal;font-variant:normal;font-weight:bold;font-stretch:normal;font-size:10.58333302px;font-family:'DejaVu Sans Mono for Powerline';-inkscape-font-specification:'DejaVu Sans Mono for Powerline, Bold';font-variant-ligatures:normal;font-variant-caps:normal;font-variant-numeric:normal;font-feature-settings:normal;text-align:start;writing-mode:lr-tb;text-anchor:start;fill:#ffffff;fill-opacity:0.99111173;stroke-width:0.26458332"
         id="path875"
         inkscape:connector-curvature="0" />
      <path
         d="m 15.009375,294.98296 q 0.402198,-0.0608 0.80898,-0.0219 0.406781,0.0389 0.823044,0.17912 1.478955,0.49825 1.929295,1.73512 0.45034,1.23686 -0.169995,3.07821 -0.621985,1.84625 -1.728956,2.55847 -1.106971,0.71222 -2.585927,0.21397 -0.416262,-0.14024 -0.768547,-0.35707 -0.352285,-0.21684 -0.625901,-0.50533 l 0.541143,-1.60628 q 0.2567,0.46819 0.556504,0.74369 0.293257,0.27875 0.665445,0.40413 0.793347,0.26728 1.412642,-0.22753 0.612749,-0.49155 1.030155,-1.73055 0.415757,-1.23409 0.227014,-2.00112 -0.19529,-0.76377 -0.988637,-1.03105 -0.372188,-0.12538 -0.772684,-0.0858 -0.407043,0.0428 -0.894718,0.26024 z"
         style="font-style:normal;font-variant:normal;font-weight:bold;font-stretch:normal;font-size:10.58333302px;font-family:'DejaVu Sans Mono for Powerline';-inkscape-font-specification:'DejaVu Sans Mono for Powerline, Bold';font-variant-ligatures:normal;font-variant-caps:normal;font-variant-numeric:normal;font-feature-settings:normal;text-align:start;writing-mode:lr-tb;text-anchor:start;fill:#ffffff;fill-opacity:0.99111173;stroke-width:0.26458332"
         id="path877"
         inkscape:connector-curvature="0" />
      <path
         d="m 9.5836199,300.634 -1.2760664,-0.83404 1.6680727,-2.55213 -3.6665225,1.24595 -1.4447667,-0.9443 3.6997988,-1.21185 0.4477372,-5.29441 1.418813,0.92734 -0.368627,3.90768 1.035982,-0.34769 1.430585,-2.18878 1.276066,0.83403 z"
         style="font-style:normal;font-variant:normal;font-weight:bold;font-stretch:normal;font-size:10.58333302px;font-family:'DejaVu Sans Mono for Powerline';-inkscape-font-specification:'DejaVu Sans Mono for Powerline, Bold';font-variant-ligatures:normal;font-variant-caps:normal;font-variant-numeric:normal;font-feature-settings:normal;text-align:start;writing-mode:lr-tb;text-anchor:start;fill:#ffffff;fill-opacity:0.99111173;stroke-width:0.26458332"
         id="path879"
         inkscape:connector-curvature="0" />
      <path
         d="m 5.1300305,286.81127 3.2411264,3.5485 -5.6966778,5.20323 -3.24112644,-3.5485 0.99205374,-0.90612 2.2130272,2.4229 1.2286204,-1.1222 -2.0039223,-2.19396 0.9920538,-0.90612 2.0039222,2.19396 1.4918962,-1.36266 -2.2130271,-2.4229 z"
         style="font-style:normal;font-variant:normal;font-weight:bold;font-stretch:normal;font-size:10.58333302px;font-family:'DejaVu Sans Mono for Powerline';-inkscape-font-specification:'DejaVu Sans Mono for Powerline, Bold';font-variant-ligatures:normal;font-variant-caps:normal;font-variant-numeric:normal;font-feature-settings:normal;text-align:start;writing-mode:lr-tb;text-anchor:start;fill:#ffffff;fill-opacity:0.99111173;stroke-width:0.26458332"
         id="path881"
         inkscape:connector-curvature="0" />
      <path
         d="m -0.53103072,284.29847 q -0.0655522,-0.22264 0.007516,-0.44866 0.0660811,-0.22817 0.38121317,-0.67048 l 1.79664045,-2.5337 0.7851828,1.47879 -1.2844796,1.73518 q -0.05364,0.0753 -0.149932,0.20247 -0.5798959,0.77013 -0.32059172,1.2585 l 0.22779993,0.42903 2.69286049,-1.42981 0.714904,1.34643 -6.8143062,3.61814 -1.0323699,-1.94434 q -0.6979402,-1.31448 -0.5353203,-2.13218 0.1601965,-0.82228 1.2099557,-1.37966 0.7028822,-0.3732 1.299977,-0.25142 0.59709473,0.12178 1.02095018,0.72171 z m -1.54618198,3.03846 1.85761727,-0.98633 -0.33685309,-0.63442 q -0.29323182,-0.55226 -0.63376478,-0.6757 -0.3475206,-0.12558 -0.8450151,0.13857 -0.4974946,0.26415 -0.5859936,0.61539 -0.088499,0.35124 0.2071562,0.90807 z"
         style="font-style:normal;font-variant:normal;font-weight:bold;font-stretch:normal;font-size:10.58333302px;font-family:'DejaVu Sans Mono for Powerline';-inkscape-font-specification:'DejaVu Sans Mono for Powerline, Bold';font-variant-ligatures:normal;font-variant-caps:normal;font-variant-numeric:normal;font-feature-settings:normal;text-align:start;writing-mode:lr-tb;text-anchor:start;fill:#ffffff;fill-opacity:0.99111173;stroke-width:0.26458332"
         id="path883"
         inkscape:connector-curvature="0" />
      <path
         d="m -2.2600659,278.84094 q -0.1596761,1.22288 -0.5323438,1.73155 -0.3776941,0.50987 -1.1718679,0.69945 -1.0203626,0.24357 -1.759409,-0.27068 -0.7390465,-0.51425 -1.0114152,-1.65524 -0.1235858,-0.51772 -0.1265376,-1.06424 -0.00798,-0.54532 0.1020509,-1.10818 l 1.447608,-0.34556 q -0.222783,0.5579 -0.2811211,1.09248 -0.058338,0.53459 0.056849,1.01712 0.1283852,0.53783 0.4129133,0.77274 0.2845281,0.23491 0.6866414,0.13892 0.3116379,-0.0744 0.4685266,-0.32966 0.1506625,-0.25911 0.2385751,-0.98139 l 0.088885,-0.69595 q 0.1157683,-0.98394 0.5616595,-1.54197 0.4458911,-0.55803 1.2802763,-0.75721 1.13597018,-0.27117 1.85971039,0.26799 0.71751393,0.53532 1.04147671,1.89246 0.1331847,0.55793 0.131856,1.15328 0.0025,0.58913 -0.1340901,1.17427 l -1.53305716,0.36596 q 0.28063528,-0.6939 0.35473353,-1.296 0.07289839,-0.60713 -0.05668673,-1.14998 -0.13078497,-0.54788 -0.44907112,-0.79068 -0.32331257,-0.24159 -0.77066362,-0.1348 -0.33677,0.0804 -0.5400963,0.34144 -0.2083528,0.26225 -0.2629294,0.67905 z"
         style="font-style:normal;font-variant:normal;font-weight:bold;font-stretch:normal;font-size:10.58333302px;font-family:'DejaVu Sans Mono for Powerline';-inkscape-font-specification:'DejaVu Sans Mono for Powerline, Bold';font-variant-ligatures:normal;font-variant-caps:normal;font-variant-numeric:normal;font-feature-settings:normal;text-align:start;writing-mode:lr-tb;text-anchor:start;fill:#ffffff;fill-opacity:0.99111173;stroke-width:0.26458332"
         id="path885"
         inkscape:connector-curvature="0" />
    </g>
    <g
       aria-label="FUCK OFF"
       transform="rotate(-18.024496,20.754971,270.64601)"
       inkscape:transform-center-x="0.14849063"
       inkscape:transform-center-y="-0.081894358"
       style="font-style:normal;font-variant:normal;font-weight:bold;font-stretch:normal;font-size:11.28888893px;line-height:1.25;font-family:'DejaVu Sans Mono for Powerline';-inkscape-font-specification:'DejaVu Sans Mono for Powerline, Bold';font-variant-ligatures:normal;font-variant-caps:normal;font-variant-numeric:normal;font-feature-settings:normal;text-align:start;letter-spacing:2.11666656px;word-spacing:0px;writing-mode:lr-tb;text-anchor:start;fill:#ff0000;fill-opacity:1;stroke:none;stroke-width:0.26458332"
       id="text828">
      <path
         d="m 7.6076541,276.83307 -0.4662079,-3.46903 -1.7590987,0.23641 0.4243594,3.15764 -1.4203903,0.19088 -0.4243594,-3.15763 -3.55643862,0.47795 -0.21658479,-1.6116 8.15631791,-1.09613 0.6827927,5.08062 z"
         style="font-style:normal;font-variant:normal;font-weight:bold;font-stretch:normal;font-size:11.28888893px;font-family:'DejaVu Sans Mono for Powerline';-inkscape-font-specification:'DejaVu Sans Mono for Powerline, Bold';font-variant-ligatures:normal;font-variant-caps:normal;font-variant-numeric:normal;font-feature-settings:normal;text-align:start;letter-spacing:2.11666656px;word-spacing:-4.30477095px;writing-mode:lr-tb;text-anchor:start;fill:#ff0000;stroke-width:0.26458332"
         id="path892"
         inkscape:connector-curvature="0" />
      <path
         d="m 4.58081,279.55768 4.5857492,-2.43566 0.7627585,1.43609 -4.9459885,2.627 q -0.5452271,0.28958 -0.7094049,0.73255 -0.1593098,0.44037 0.101838,0.93205 0.2611479,0.49168 0.7152186,0.60627 0.4589388,0.112 1.0041658,-0.17759 l 4.9459883,-2.62699 0.762759,1.43608 -4.5857494,2.43566 q -1.4799021,0.78603 -2.46456,0.55381 -0.9846579,-0.23223 -1.6776047,-1.53688 -0.6903611,-1.29978 -0.3340093,-2.25051 0.3589374,-0.94585 1.8388394,-1.73188 z"
         style="font-style:normal;font-variant:normal;font-weight:bold;font-stretch:normal;font-size:11.28888893px;font-family:'DejaVu Sans Mono for Powerline';-inkscape-font-specification:'DejaVu Sans Mono for Powerline, Bold';font-variant-ligatures:normal;font-variant-caps:normal;font-variant-numeric:normal;font-feature-settings:normal;text-align:start;letter-spacing:2.11666656px;word-spacing:-4.30477095px;writing-mode:lr-tb;text-anchor:start;fill:#ff0000;stroke-width:0.26458332"
         id="path894"
         inkscape:connector-curvature="0" />
      <path
         d="m 10.751179,291.97317 q -0.419841,-0.10951 -0.8022535,-0.31867 -0.3824122,-0.20917 -0.7315024,-0.52168 -1.2402971,-1.11031 -1.1616727,-2.51216 0.078624,-1.40184 1.460998,-2.94606 1.3860496,-1.54831 2.7706826,-1.78103 1.384633,-0.23271 2.62493,0.8776 0.34909,0.3125 0.603254,0.6732 0.254164,0.36069 0.401082,0.75854 l -1.205901,1.34708 q -0.05477,-0.5669 -0.232822,-0.96303 -0.170267,-0.39656 -0.482395,-0.67598 -0.665325,-0.5956 -1.480473,-0.37095 -0.807365,0.22421 -1.737526,1.26327 -0.9264842,1.03495 -1.0639865,1.86622 -0.1297189,0.83084 0.5356065,1.42644 0.312127,0.27941 0.721369,0.40902 0.417025,0.12918 0.98651,0.12111 z"
         style="font-style:normal;font-variant:normal;font-weight:bold;font-stretch:normal;font-size:11.28888893px;font-family:'DejaVu Sans Mono for Powerline';-inkscape-font-specification:'DejaVu Sans Mono for Powerline, Bold';font-variant-ligatures:normal;font-variant-caps:normal;font-variant-numeric:normal;font-feature-settings:normal;text-align:start;letter-spacing:2.11666656px;word-spacing:-4.30477095px;writing-mode:lr-tb;text-anchor:start;fill:#ff0000;stroke-width:0.26458332"
         id="path896"
         inkscape:connector-curvature="0" />
      <path
         d="m 16.686017,286.4351 1.512375,0.59739 -1.194778,3.02475 3.563312,-2.08918 1.712316,0.67637 -3.605402,2.0607 0.669159,5.62788 -1.681556,-0.66422 -0.454018,-4.162 -1.007755,0.58575 -1.024675,2.59411 -1.512375,-0.59739 z"
         style="font-style:normal;font-variant:normal;font-weight:bold;font-stretch:normal;font-size:11.28888893px;font-family:'DejaVu Sans Mono for Powerline';-inkscape-font-specification:'DejaVu Sans Mono for Powerline, Bold';font-variant-ligatures:normal;font-variant-caps:normal;font-variant-numeric:normal;font-feature-settings:normal;text-align:start;letter-spacing:2.11666656px;word-spacing:-4.30477095px;writing-mode:lr-tb;text-anchor:start;fill:#ff0000;stroke-width:0.26458332"
         id="path898"
         inkscape:connector-curvature="0" />
      <path
         d="m 28.390238,289.69854 q -0.614886,0.0994 -0.791373,0.8036 -0.177367,0.69874 0.05933,2.16249 0.235816,1.45832 0.625242,2.07098 0.388546,0.60722 1.003432,0.50779 0.620327,-0.10031 0.797694,-0.79904 0.176487,-0.70418 -0.05933,-2.16249 -0.236696,-1.46376 -0.625242,-2.07098 -0.389426,-0.61266 -1.009753,-0.51235 z m -2.402575,3.23622 q -0.337006,-2.08408 0.208805,-3.26675 0.551253,-1.18356 1.960593,-1.41146 1.414782,-0.22877 2.305518,0.7216 0.896179,0.9495 1.233185,3.03359 0.336126,2.07864 -0.215127,3.26219 -0.545811,1.18268 -1.960593,1.41146 -1.40934,0.22789 -2.305518,-0.7216 -0.890737,-0.95038 -1.226863,-3.02903 z"
         style="font-style:normal;font-variant:normal;font-weight:bold;font-stretch:normal;font-size:11.28888893px;font-family:'DejaVu Sans Mono for Powerline';-inkscape-font-specification:'DejaVu Sans Mono for Powerline, Bold';font-variant-ligatures:normal;font-variant-caps:normal;font-variant-numeric:normal;font-feature-settings:normal;text-align:start;letter-spacing:2.11666656px;word-spacing:-4.30477095px;writing-mode:lr-tb;text-anchor:start;fill:#ff0000;stroke-width:0.26458332"
         id="path900"
         inkscape:connector-curvature="0" />
      <path
         d="m 36.876593,286.32664 -3.044255,1.72743 0.875958,1.5437 2.770992,-1.57237 0.707296,1.24647 -2.770992,1.57237 1.77096,3.12096 -1.41426,0.80251 -4.061511,-7.1576 4.458516,-2.52994 z"
         style="font-style:normal;font-variant:normal;font-weight:bold;font-stretch:normal;font-size:11.28888893px;font-family:'DejaVu Sans Mono for Powerline';-inkscape-font-specification:'DejaVu Sans Mono for Powerline, Bold';font-variant-ligatures:normal;font-variant-caps:normal;font-variant-numeric:normal;font-feature-settings:normal;text-align:start;letter-spacing:2.11666656px;word-spacing:-4.30477095px;writing-mode:lr-tb;text-anchor:start;fill:#ff0000;stroke-width:0.26458332"
         id="path902"
         inkscape:connector-curvature="0" />
      <path
         d="m 41.24945,281.45093 -2.260689,2.67223 1.355052,1.14637 2.05776,-2.43236 1.094141,0.92563 -2.05776,2.43236 2.73956,2.31765 -1.050241,1.24143 -6.282894,-5.31528 3.31093,-3.91366 z"
         style="font-style:normal;font-variant:normal;font-weight:bold;font-stretch:normal;font-size:11.28888893px;font-family:'DejaVu Sans Mono for Powerline';-inkscape-font-specification:'DejaVu Sans Mono for Powerline, Bold';font-variant-ligatures:normal;font-variant-caps:normal;font-variant-numeric:normal;font-feature-settings:normal;text-align:start;letter-spacing:2.11666656px;word-spacing:-4.30477095px;writing-mode:lr-tb;text-anchor:start;fill:#ff0000;stroke-width:0.26458332"
         id="path904"
         inkscape:connector-curvature="0" />
    </g>
  </g>
</svg>
